<?xml version="1.0" encoding="utf-8"?>
<!-- Generator: Adobe Illustrator 24.0.2, SVG Export Plug-In . SVG Version: 6.00 Build 0)  -->
<svg version="1.1" id="Capa_1" xmlns="http://www.w3.org/2000/svg" xmlns:xlink="http://www.w3.org/1999/xlink" x="0px" y="0px"
	 viewBox="0 0 512 512" style="enable-background:new 0 0 512 512;" xml:space="preserve">
<style type="text/css">
	.st0{fill:#FFFFFF;}
</style>
<g transform="translate(0.000000,512.000000) scale(0.100000,-0.100000)">
	<path class="st0" d="M3000,5104c-110-23-240-94-323-177c-189-189-251-448-166-701c15-42,334-616,364-654c2-2,56-14,121-27
		c302-61,520-152,652-270c28-26,58-45,65-43c8,2,175,95,372,208c341,195,364,209,446,290c71,70,94,100,127,170c58,120,75,201,69,330
		c-7,180-71,325-197,450c-124,122-257,180-433,188c-124,5-202-7-302-49c-38-16-72-25-75-21c-4,4-24,31-45,60
		c-81,114-243,216-393,247C3193,5123,3087,5123,3000,5104z"/>
	<path class="st0" d="M2109,4761c-304-82-551-354-585-644l-7-55l-56-21c-92-33-228-121-315-203c-160-149-256-326-288-528l-12-77
		l-60-39c-118-77-233-208-305-351c-110-219-120-506-27-739c91-224,276-410,497-499l84-34l86-548c48-301,97-578,109-616
		c26-81,106-204,163-251c69-56,157-105,232-129c70-22,72-22,895-22c773,0,829,1,885,18c196,60,344,200,411,389
		c11,31,164,958,164,994c0,2,38,22,85,44c179,86,332,214,408,341c132,223,105,478-72,689l-39,46l14,64c18,86,18,262-1,349
		c-17,80-72,231-85,231c-4,0-71-36-148-81l-140-81l18-41c65-148,44-365-49-502c-17-25-31-48-31-49c0-2,30-22,68-44
		c136-81,212-185,212-291c0-214-322-402-781-455c-448-52-921,38-1153,220c-51,40-109,107-119,137c-2,7-21,5-63-8
		c-118-38-254-21-358,45l-46,30l-58-47c-230-187-544-172-752,37c-314,314-165,849,268,960c39,10,43,14,38,33c-17,58-18,194-2,261
		c64,272,336,480,638,489c43,1,78,3,78,3c0,1-12,27-26,58c-51,113-42,257,24,379c31,58,119,142,185,177l47,25v60c0,52,21,174,45,268
		C2193,4784,2195,4784,2109,4761z M1775,1626c7-30,205-1381,205-1396c0-19-100-5-155,21c-50,24-120,95-140,143c-8,18-50,278-95,577
		c-44,299-83,555-86,570c-4,23-1,26,43,38c26,6,80,27,118,45C1741,1659,1768,1660,1775,1626z M2466,1387c38-13,111-34,162-47l92-22
		l-2-547l-3-546l-167-3l-168-2v595c0,327,4,595,8,595C2393,1410,2428,1399,2466,1387z M3500,1325c0-2-29-206-65-452
		c-48-327-71-459-86-489c-24-50-96-120-144-140c-36-15-145-31-145-21c0,8,147,1000,155,1043l5,31l103,15
		C3429,1328,3500,1333,3500,1325z"/>
</g>
</svg>
