<?xml version="1.0" encoding="utf-8"?>
<!-- Generator: Adobe Illustrator 24.0.2, SVG Export Plug-In . SVG Version: 6.00 Build 0)  -->
<svg version="1.1" id="Capa_1" xmlns="http://www.w3.org/2000/svg" xmlns:xlink="http://www.w3.org/1999/xlink" x="0px" y="0px"
	 viewBox="0 0 512 512" style="enable-background:new 0 0 512 512;" xml:space="preserve">
<style type="text/css">
	.st0{fill:#FFFFFF;}
</style>
<g transform="translate(0.000000,512.000000) scale(0.100000,-0.100000)">
	<path class="st0" d="M1650,4395v-55h670h670v55v55h-670h-670V4395z"/>
	<path class="st0" d="M1070,4075v-55h515h515v55v55h-515h-515V4075z"/>
	<path class="st0" d="M1527,3814c-4-4-7-29-7-56v-48h111h110l-3,53l-3,52l-101,3C1579,3819,1531,3818,1527,3814z"/>
	<path class="st0" d="M1877,3813c-4-3-7-28-7-55v-48h396h395l-3,53l-3,52l-386,3C2057,3819,1881,3817,1877,3813z"/>
	<path class="st0" d="M3660,3496c-47-12-214-58-371-101l-287-78l15-51c8-28,16-53,18-54c2-2,87,19,190,47c102,28,192,51,199,51
		s25-9,40-21c20-16,26-29,26-60c0-76,42-144,110-179c37-19,133-40,182-40h28v255v255h-32C3760,3519,3707,3509,3660,3496z"/>
	<path class="st0" d="M3890,3260c0-223,1-240,18-240c28,0,95,39,125,73c27,31,27,34,27,164v132l-30,35c-29,33-102,76-128,76
		C3893,3500,3890,3438,3890,3260z"/>
	<path class="st0" d="M472,3468c8-13,54-89,103-170l90-148h446h446l55,83c31,45,83,121,117,170l61,87h-666H458L472,3468z"/>
	<path class="st0" d="M1704,3211c-49-72-99-135-112-140c-33-16-932-15-966,0c-16,8-51,55-96,130c-39,66-73,119-75,119
		c-3,0-5-232-5-515v-515h675h675v525c0,289-2,525-4,525S1752,3282,1704,3211z"/>
	<path class="st0" d="M3554,2949c9-38,34-224,48-354c17-163,17-703,0-860c-8-65-23-143-34-172c-24-66-105-156-167-187
		c-77-39-138-46-394-46h-242l-76,79c-125,129-199,276-199,395c0,109,56,229,149,321c28,27,51,53,51,57s-186,8-413,8h-413l-65-51
		c-237-189-406-444-454-686l-7-33h162h163l38,35c81,73,223,125,344,125c234,0,458-173,516-400l13-50l434,2l434,3l17,55
		c44,138,146,264,267,328c299,157,661,2,765-328l17-55h73h74l-1,155c-2,306-70,575-193,763c-56,85-166,191-244,236
		c-57,32-187,81-217,81c-32,0-58,48-160,299c-57,139-109,254-114,256c-78,18-145,35-159,40C3552,2971,3550,2969,3554,2949z"/>
	<path class="st0" d="M1980,2452c-42-22-80-90-80-144v-38h416h417l-7,32c-12,59-85,133-155,157c-22,7-126,11-295,11
		C2042,2470,2011,2468,1980,2452z"/>
	<path class="st0" d="M1163,1993l208-208l19,25c53,69,60,55-115,230l-160,160h-80h-80L1163,1993z"/>
	<path class="st0" d="M1908,1471c-211-69-344-283-309-494c41-246,273-417,512-377c271,46,439,313,359,571c-38,125-117,217-238,276
		c-65,33-81,36-170,40C1986,1489,1952,1486,1908,1471z M2141,1227c167-89,133-343-51-387c-117-28-233,50-255,172
		c-10,53,17,136,57,175C1960,1253,2061,1269,2141,1227z"/>
	<path class="st0" d="M1990,1152c-21-10-42-32-54-55c-49-101,47-204,151-162c95,38,101,175,9,219C2053,1174,2033,1174,1990,1152z"/>
	<path class="st0" d="M3835,1470c-122-44-218-131-274-250c-23-50-26-67-26-175c0-114,1-123,32-188c64-135,197-235,344-258
		c191-29,387,79,473,261c42,89,48,215,17,319c-38,124-143,235-271,286c-28,11-81,19-140,22C3912,1490,3884,1487,3835,1470z
		 M4092,1214c59-42,88-95,88-166s-10-96-56-148c-60-66-164-85-244-45c-125,64-151,246-48,342C3898,1259,4017,1267,4092,1214z"/>
	<path class="st0" d="M3910,1143c-35-24-48-43-55-79c-14-68,50-144,120-144c76,0,137,80,116,151C4068,1148,3972,1186,3910,1143z"/>
	<path class="st0" d="M1140,1230v-100l186,2l187,3l14,55c7,30,24,74,38,97l24,43h-225h-224V1230z"/>
</g>
</svg>
