<?xml version="1.0" encoding="utf-8"?>
<!-- Generator: Adobe Illustrator 24.0.2, SVG Export Plug-In . SVG Version: 6.00 Build 0)  -->
<svg version="1.1" id="Capa_1" xmlns="http://www.w3.org/2000/svg" xmlns:xlink="http://www.w3.org/1999/xlink" x="0px" y="0px"
	 viewBox="0 0 512 512" style="enable-background:new 0 0 512 512;" xml:space="preserve">
<style type="text/css">
	.st0{fill:#FFFFFF;}
</style>
<g transform="translate(0.000000,512.000000) scale(0.100000,-0.100000)">
	<path class="st0" d="M514,4740c-55-22-54-13-54-556c0-492,0-502,21-528l20-26h159h159l20,26c21,26,21,36,21,530v503l-24,28
		c-24,28-25,28-163,30C597,4748,525,4745,514,4740z"/>
	<path class="st0" d="M1265,4680c-121-4-226-8-232-9c-10-1-13-105-13-486v-485h81c126,0,157-12,251-96c204-183,354-261,681-354
		c78-23,207-65,287-94c135-50,405-135,476-150c43-9,80,8,100,45c22,44,6,150-36,235c-44,90-105,141-231,193c-237,98-379,212-379,305
		c0,15,9,43,19,64c25,48,217,238,255,252c23,9,45,6,115-14c99-29,217-76,277-111c54-32,153-139,182-197c35-71,31-82-40-120
		c-96-51-168-161-168-258c0-41,28-124,51-154c39-49,57-40,284,148c236,194,259,223,260,316c0,57-88,367-125,440
		c-25,48-32,54-330,274c-169,125-285,204-320,217c-37,14-94,24-170,30C2370,4683,1518,4689,1265,4680z"/>
	<path class="st0" d="M3029,2891c-45-36-21-126,36-131c60-6,95,21,95,73C3160,2899,3081,2934,3029,2891z"/>
	<path class="st0" d="M2739,2651c-31-32-35-50-17-84c26-50,77-61,122-26c35,28,36,80,1,114C2812,2688,2775,2687,2739,2651z"/>
	<path class="st0" d="M3209,2571c-45-36-21-126,36-131c60-6,95,21,95,73C3340,2579,3261,2614,3209,2571z"/>
	<path class="st0" d="M2949,2331c-45-36-21-126,36-131c60-6,95,21,95,73C3080,2339,3001,2374,2949,2331z"/>
	<path class="st0" d="M529,2081c-36-36-37-73-4-106l24-25h2031h2031l24,25c33,33,32,70-4,106l-29,29H2580H558L529,2081z"/>
	<path class="st0" d="M680,1758c0-93,81-326,163-473c240-427,719-751,1277-864c318-65,695-57,1008,19c394,96,763,310,998,577
		c194,221,311,462,358,736l7,37H2585H680V1758z M1010,1580c24-13,110-183,110-218c0-55-68-90-121-62c-24,13-109,181-109,215
		C890,1569,960,1607,1010,1580z M1300,1166c241-229,507-373,824-446c112-26,136-43,136-95c0-47-29-75-77-75c-88,0-328,74-488,149
		c-188,89-329,187-482,335c-79,75-93,94-93,121c0,20,8,39,23,52C1192,1252,1215,1246,1300,1166z"/>
</g>
</svg>
